<svg width="0" height="0" class="hidden">
  <symbol xmlns="http://www.w3.org/2000/svg" viewBox="0 0 80 80" id="btc-icon">
    <circle cx="40" cy="40" r="40" fill="#C4C4C4"></circle>
    <g clip-path="url(#clip0)">
      <path d="M78.803 49.673c-5.344 21.44-27.066 34.473-48.475 29.129C8.887 73.457-4.146 51.736 1.198 30.327 6.544 8.887 28.234-4.146 49.675 1.199c21.41 5.313 34.474 27.034 29.13 48.474z"></path>
      <path d="M59.045 35.016c.781-5.313-3.25-8.188-8.813-10.094l1.813-7.219-4.375-1.093-1.75 7.03a117.025 117.025 0 00-3.531-.812l1.75-7.062-4.375-1.094-1.782 7.188a211.62 211.62 0 01-2.812-.657v-.03l-6.063-1.5-1.156 4.687s3.25.75 3.188.78c1.78.438 2.093 1.626 2.03 2.563l-2.062 8.22c.125.03.282.062.47.155a2.599 2.599 0 01-.47-.125l-2.875 11.5c-.218.532-.78 1.344-2 1.032.032.062-3.187-.782-3.187-.782l-2.188 5.032 5.72 1.437c1.062.281 2.093.531 3.124.813l-1.812 7.28 4.375 1.095 1.812-7.22c1.188.313 2.375.626 3.5.907l-1.781 7.188 4.375 1.093 1.812-7.28c7.5 1.405 13.125.843 15.47-5.938 1.905-5.438-.095-8.594-4.032-10.657 2.906-.656 5.062-2.562 5.625-6.437zM49.014 49.078c-1.344 5.438-10.532 2.5-13.5 1.75l2.406-9.656c2.969.75 12.531 2.219 11.094 7.906zm1.375-14.156c-1.25 4.969-8.875 2.438-11.344 1.813l2.187-8.75c2.47.625 10.438 1.78 9.157 6.937z" fill='#fff'></path>
    </g>
    <defs>
      <linearGradient id="paint0_linear" x1="39.978" y1="-.019" x2="39.978" y2="79.992" gradientUnits="userSpaceOnUse">
        <stop stop-color="#F9AA4B"></stop>
        <stop offset="1" stop-color="#F7931A"></stop>
      </linearGradient>
      <clipPath id="clip0">
        <path fill="#fff" d="M0 0h80v80H0z"></path>
      </clipPath>
    </defs>
  </symbol>
  <symbol xmlns="http://www.w3.org/2000/svg" viewBox="0 0 80 80" id="countries">
    <circle opacity=".1" cx="40" cy="40" r="40" fill="#fff"></circle>
    <path d="M52.374 27.636a17.5 17.5 0 10-24.748 24.749 17.5 17.5 0 1024.748-24.749zM25 40.011c0-1.328.176-2.65.524-3.93.573 1.233 1.406 2.3 1.972 3.566.732 1.629 2.698 1.177 3.566 2.604.77 1.266-.053 2.867.524 4.192.419.962 1.406 1.172 2.088 1.875.696.71.68 1.682.787 2.607a23.809 23.809 0 00.588 3.248C29.203 52.12 25 46.547 25 40.011zm15 15c-.838 0-1.674-.07-2.5-.21.009-.212.013-.41.034-.547.19-1.242.811-2.457 1.65-3.386.83-.918 1.965-1.538 2.665-2.579.686-1.015.892-2.382.609-3.569-.416-1.753-2.798-2.338-4.083-3.29-.738-.546-1.395-1.391-2.365-1.46-.447-.031-.82.065-1.264-.05-.406-.105-.725-.323-1.158-.266-.808.106-1.318.97-2.187.853-.824-.11-1.674-1.075-1.861-1.86-.24-1.01.558-1.337 1.413-1.427.357-.038.758-.078 1.101.053.452.167.665.61 1.07.833.76.417.914-.25.798-.924-.174-1.011-.377-1.423.524-2.119.625-.48 1.16-.827 1.06-1.688-.06-.507-.337-.736-.078-1.24.196-.383.734-.73 1.085-.958.905-.59 3.879-.547 2.664-2.2-.357-.485-1.016-1.352-1.64-1.471-.782-.148-1.13.724-1.674 1.108-.562.398-1.657.85-2.22.235-.758-.827.502-1.099.78-1.677.13-.27 0-.643-.217-.996.282-.118.569-.229.86-.33.182.134.399.216.625.234.522.035 1.015-.248 1.472.108.506.39.87.884 1.543 1.006.65.118 1.338-.26 1.499-.926.098-.405 0-.832-.094-1.25 2.922.017 5.775.892 8.203 2.516-.156-.06-.343-.052-.573.055-.474.22-1.146.781-1.202 1.337-.063.632.868.72 1.31.72.664 0 1.337-.296 1.123-1.064-.093-.332-.22-.678-.423-.888.49.34.96.71 1.406 1.105l-.021.021c-.45.469-.973.84-1.28 1.41-.218.402-.463.592-.902.696-.242.057-.52.078-.722.24-.566.446-.244 1.516.292 1.838.677.405 1.682.214 2.193-.364.4-.454.634-1.24 1.352-1.24.316 0 .62.124.846.345.297.308.238.595.301.98.112.682.714.312 1.08-.032.268.475.509.965.722 1.466-.403.58-.723 1.213-1.692.537-.58-.406-.938-.994-1.667-1.177-.637-.156-1.289.007-1.918.115-.715.124-1.562.179-2.105.72-.524.522-.801 1.22-1.359 1.745-1.079 1.016-1.534 2.124-.836 3.56.672 1.38 2.078 2.13 3.594 2.031 1.49-.099 3.037-.963 2.995 1.202-.016.766.144 1.297.38 2.008.217.657.202 1.293.252 1.97.048.793.172 1.58.37 2.35A14.98 14.98 0 0140 55.01z"></path>
  </symbol>
  <symbol xmlns="http://www.w3.org/2000/svg" viewBox="0 0 80 80" id="eth-icon">
    <circle cx="40" cy="40" r="40" fill="#1181E8"></circle>
    <g clip-path="url(#clip0)">
      <path d="M39.89 51.938l-14.735-8.695 14.726 20.758 14.742-20.758-14.742 8.695h.009zM40.109 16L25.38 40.446l14.729 8.71 14.734-8.701L40.11 16z"></path>
    </g>
    <defs>
      <clipPath id="clip0">
        <path fill="#fff" transform="translate(16 16)" d="M0 0h48v48H0z"></path>
      </clipPath>
    </defs>
  </symbol>
  <symbol xmlns="http://www.w3.org/2000/svg" viewBox="0 0 24 24" id="facebook">
    <path d="M15.12 5.32H17V2.14A26.113 26.113 0 0014.26 2c-2.72 0-4.58 1.66-4.58 4.7v2.62H6.61v3.56h3.07V22h3.68v-9.12h3.06l.46-3.56h-3.52V7.05c0-1.05.28-1.73 1.76-1.73z"></path>
  </symbol>
  <symbol  xmlns="http://www.w3.org/2000/svg" viewBox="0 0 80 80" id="fortune">
    <circle cx="40" cy="40" r="40" fill-opacity=".05"></circle>
    <path d="M54 55H27a2 2 0 01-2-2V26a1 1 0 012 0v27h27a1 1 0 010 2z"></path>
    <path d="M33.75 51h-2.5A2.25 2.25 0 0129 48.75v-9.5A2.25 2.25 0 0131.25 37h2.5A2.25 2.25 0 0136 39.25v9.5A2.25 2.25 0 0133.75 51zm9 0h-2.5A2.25 2.25 0 0138 48.75v-12.5A2.25 2.25 0 0140.25 34h2.5A2.25 2.25 0 0145 36.25v12.5A2.25 2.25 0 0142.75 51zm8.977 0h-2.5a2.25 2.25 0 01-2.25-2.25v-16.5a2.25 2.25 0 012.25-2.25h2.5a2.25 2.25 0 012.25 2.25v16.5a2.25 2.25 0 01-2.25 2.25z"></path>
  </symbol>
  <symbol xmlns="http://www.w3.org/2000/svg" viewBox="0 0 24 24" id="instagram">
    <path d="M17.34 5.46a1.2 1.2 0 100 2.4 1.2 1.2 0 000-2.4zm4.6 2.42a7.588 7.588 0 00-.46-2.43 4.94 4.94 0 00-1.16-1.77 4.7 4.7 0 00-1.77-1.15 7.3 7.3 0 00-2.43-.47C15.06 2 14.72 2 12 2s-3.06 0-4.12.06a7.3 7.3 0 00-2.43.47 4.78 4.78 0 00-1.77 1.15 4.7 4.7 0 00-1.15 1.77 7.3 7.3 0 00-.47 2.43C2 8.94 2 9.28 2 12s0 3.06.06 4.12a7.3 7.3 0 00.47 2.43 4.7 4.7 0 001.15 1.77 4.78 4.78 0 001.77 1.15 7.3 7.3 0 002.43.47C8.94 22 9.28 22 12 22s3.06 0 4.12-.06a7.3 7.3 0 002.43-.47 4.7 4.7 0 001.77-1.15 4.85 4.85 0 001.16-1.77c.285-.78.44-1.6.46-2.43 0-1.06.06-1.4.06-4.12s0-3.06-.06-4.12zM20.14 16a5.61 5.61 0 01-.34 1.86 3.06 3.06 0 01-.75 1.15c-.324.33-.717.586-1.15.75a5.61 5.61 0 01-1.86.34c-1 .05-1.37.06-4 .06s-3 0-4-.06a5.73 5.73 0 01-1.94-.3 3.27 3.27 0 01-1.1-.75 3 3 0 01-.74-1.15 5.54 5.54 0 01-.4-1.9c0-1-.06-1.37-.06-4s0-3 .06-4a5.54 5.54 0 01.35-1.9A3 3 0 015 5a3.14 3.14 0 011.1-.8A5.73 5.73 0 018 3.86c1 0 1.37-.06 4-.06s3 0 4 .06a5.61 5.61 0 011.86.34 3.06 3.06 0 011.19.8c.328.307.584.683.75 1.1.222.609.337 1.252.34 1.9.05 1 .06 1.37.06 4s-.01 3-.06 4zM12 6.87A5.13 5.13 0 1017.14 12 5.12 5.12 0 0012 6.87zm0 8.46a3.33 3.33 0 110-6.66 3.33 3.33 0 010 6.66z"></path>
  </symbol>
  <symbol xmlns="http://www.w3.org/2000/svg" viewBox="0 0 24 24" id="linkedin">
    <path d="M20.47 2H3.53a1.45 1.45 0 00-1.47 1.43v17.14A1.45 1.45 0 003.53 22h16.94a1.45 1.45 0 001.47-1.43V3.43A1.45 1.45 0 0020.47 2zM8.09 18.74h-3v-9h3v9zM6.59 8.48a1.56 1.56 0 110-3.12 1.57 1.57 0 110 3.12zm12.32 10.26h-3v-4.83c0-1.21-.43-2-1.52-2A1.65 1.65 0 0012.85 13a1.998 1.998 0 00-.1.73v5h-3v-9h3V11a3 3 0 012.71-1.5c2 0 3.45 1.29 3.45 4.06v5.18z"></path>
  </symbol>
  <symbol xmlns="http://www.w3.org/2000/svg" viewBox="0 0 134 40" id="logo">
    <path d="M20 40c11.046 0 20-8.954 20-20S31.046 0 20 0 0 8.954 0 20s8.954 20 20 20z" fill-opacity=".1"></path>
    <path d="M18.842 28.046a8.141 8.141 0 01-6.946-8.057 8.14 8.14 0 016.946-8.057v-4.24c-6.256.599-11.15 5.876-11.15 12.297s4.893 11.698 11.15 12.297v-4.24zM26.998 12l-.109.371V23.14l.11.11 4.998-2.955L26.998 12z"></path>
    <path d="M26.998 12L22 20.294l4.998 2.954V12zm.001 12.874l-.062.075v3.836l.062.18L32 21.92l-5 2.954z"></path>
    <path d="M26.998 28.965v-4.09L22 21.92l4.998 7.044zm0-5.717l4.999-2.954-4.999-2.272v5.226zM22 20.294l4.998 2.954v-5.226L22 20.294zm46.496-1.968c-.402-2.908-2.64-4.596-5.541-4.596-3.42 0-5.996 2.493-5.996 6.725 0 4.225 2.544 6.724 5.995 6.724 3.113 0 5.178-2.013 5.542-4.513l-2.39-.012c-.3 1.534-1.553 2.396-3.12 2.396-2.122 0-3.643-1.591-3.643-4.595 0-2.953 1.509-4.596 3.65-4.596 1.592 0 2.838.901 3.113 2.467h2.39zM71.388 27h2.372v-4.794h2.416L78.746 27h2.646l-2.832-5.19c1.54-.62 2.352-1.937 2.352-3.714 0-2.5-1.61-4.187-4.615-4.187h-4.909V27zm2.372-6.763v-4.346h2.173c1.77 0 2.563.812 2.563 2.205s-.792 2.141-2.55 2.141H73.76zM85.496 27l1.08-3.228h4.922L92.585 27h2.531l-4.615-13.09h-2.927L82.965 27h2.531zm1.72-5.133l1.77-5.273h.103l1.77 5.273h-3.643zM97.56 27h2.372v-4.423h2.506c3.023 0 4.647-1.816 4.647-4.334 0-2.5-1.605-4.334-4.615-4.334h-4.91V27zm2.372-6.373v-4.736h2.173c1.777 0 2.564.958 2.564 2.352s-.787 2.384-2.551 2.384h-2.186zM109.865 27h2.371v-4.423h2.506c3.023 0 4.647-1.816 4.647-4.334 0-2.5-1.605-4.334-4.615-4.334h-4.909V27zm2.371-6.373v-4.736h2.173c1.777 0 2.564.958 2.564 2.352s-.787 2.384-2.551 2.384h-2.186zm21.63-.172c0-4.232-2.582-6.725-6.015-6.725-3.439 0-6.015 2.493-6.015 6.725 0 4.225 2.576 6.724 6.015 6.724 3.433 0 6.015-2.493 6.015-6.724zm-2.384 0c0 2.978-1.496 4.596-3.631 4.596-2.128 0-3.631-1.618-3.631-4.596 0-2.979 1.503-4.596 3.631-4.596 2.135 0 3.631 1.617 3.631 4.596z"></path>
  </symbol>
  <symbol xmlns="http://www.w3.org/2000/svg" viewBox="0 0 80 80" id="ltc-icon">
    <g clip-path="url(#clip0)">
      <circle cx="40" cy="40" r="40" fill="#fff"></circle>
      <path d="M40 0a40 40 0 100 80 40 40 0 000-80zm-.873 12.26h8.613a1.144 1.144 0 011.1 1.45l-6.767 23.06 6.35-1.94-1.36 4.617-6.413 1.866-4.16 14.047h22.253a1.143 1.143 0 011.094 1.457l-1.94 6.666a1.53 1.53 0 01-1.467 1.1H22.443l5.744-19.406-6.354 1.933 1.4-4.537L29.6 40.64l8.073-27.267a1.52 1.52 0 011.457-1.113h-.003z"></path>
    </g>
    <defs>
      <clipPath id="clip0">
        <path fill="#fff" d="M0 0h80v80H0z"></path>
      </clipPath>
    </defs>
  </symbol>
  <symbol xmlns="http://www.w3.org/2000/svg" viewBox="0 0 24 24" id="twitter">
    <path d="M22 5.8a8.49 8.49 0 01-2.36.64 4.13 4.13 0 001.81-2.27c-.806.48-1.69.818-2.61 1a4.1 4.1 0 00-7 3.74 11.64 11.64 0 01-8.45-4.29 4.16 4.16 0 00-.55 2.07 4.09 4.09 0 001.82 3.41 4.05 4.05 0 01-1.86-.51v.05a4.1 4.1 0 003.3 4 3.929 3.929 0 01-1.1.17 4.896 4.896 0 01-.77-.07 4.11 4.11 0 003.83 2.84A8.22 8.22 0 012 18.28a11.57 11.57 0 006.29 1.85A11.59 11.59 0 0020 8.45v-.53a8.43 8.43 0 002-2.12z"></path>
  </symbol>
  <symbol xmlns="http://www.w3.org/2000/svg" viewBox="0 0 80 80" id="users">
    <circle opacity=".1" cx="40" cy="40" r="40" fill="#fff"></circle>
    <path d="M45.987 25.045C44.467 23.404 42.344 22.5 40 22.5c-2.356 0-4.487.898-6 2.53-1.53 1.649-2.275 3.89-2.1 6.31.347 4.776 3.98 8.66 8.1 8.66 4.12 0 7.747-3.884 8.1-8.658.177-2.398-.573-4.635-2.113-6.297zM53.75 57.5h-27.5a2.42 2.42 0 01-1.89-.87c-.508-.607-.713-1.436-.562-2.274.66-3.658 2.718-6.73 5.952-8.887C32.623 43.554 36.263 42.5 40 42.5s7.377 1.055 10.25 2.969c3.234 2.156 5.292 5.229 5.952 8.886.151.839-.054 1.668-.561 2.275a2.422 2.422 0 01-1.891.87z"></path>
  </symbol>
  <symbol xmlns="http://www.w3.org/2000/svg" viewBox="0 0 24 24" id="youtube">
    <path d="M23 9.71a8.5 8.5 0 00-.91-4.13 2.92 2.92 0 00-1.72-1A78.358 78.358 0 0012 4.27a78.45 78.45 0 00-8.34.3 2.87 2.87 0 00-1.46.74c-.9.83-1 2.25-1.1 3.45a48.289 48.289 0 000 6.48 9.55 9.55 0 00.3 2c.12.505.365.972.71 1.36a2.86 2.86 0 001.49.78c2.156.266 4.328.376 6.5.33 3.5.05 6.57 0 10.2-.28a2.88 2.88 0 001.53-.78c.28-.28.49-.623.61-1a10.58 10.58 0 00.52-3.4c.04-.56.04-3.94.04-4.54zM9.74 14.85V8.66l5.92 3.11c-1.66.92-3.85 1.96-5.92 3.08z"></path>
  </symbol>
  <symbol xmlns="http://www.w3.org/2000/svg" viewBox="0 0 12 8" id="arrow">
    <path d="M11.131.688H.87c-.308 0-.48.325-.29.546l5.132 5.95c.147.17.43.17.578 0l5.131-5.95c.19-.222.02-.546-.289-.546z" ></path>
  </symbol>
</svg>
